<?xml version="1.0" encoding="UTF-8" standalone="no"?>
<!-- Created with Inkscape (http://www.inkscape.org/) -->
<svg
   xmlns:dc="http://purl.org/dc/elements/1.1/"
   xmlns:cc="http://web.resource.org/cc/"
   xmlns:rdf="http://www.w3.org/1999/02/22-rdf-syntax-ns#"
   xmlns:svg="http://www.w3.org/2000/svg"
   xmlns="http://www.w3.org/2000/svg"
   xmlns:sodipodi="http://inkscape.sourceforge.net/DTD/sodipodi-0.dtd"
   xmlns:inkscape="http://www.inkscape.org/namespaces/inkscape"
   width="750"
   height="600"
   id="svg2"
   sodipodi:version="0.32"
   inkscape:version="0.43"
   version="1.0"
   sodipodi:docbase="C:\Documents and Settings\Alexander Bito\My Documents\Wikipedia Highways\Elongated circle shields\Elongated circle shields 9"
   sodipodi:docname="Elongated circle 2022.svg">
  <defs
     id="defs4" />
  <sodipodi:namedview
     id="base"
     pagecolor="#ffffff"
     bordercolor="#666666"
     borderopacity="1.0"
     inkscape:pageopacity="0.0"
     inkscape:pageshadow="2"
     inkscape:zoom="0.75"
     inkscape:cx="375"
     inkscape:cy="300"
     inkscape:document-units="px"
     inkscape:current-layer="layer1"
     inkscape:window-width="1280"
     inkscape:window-height="714"
     inkscape:window-x="-4"
     inkscape:window-y="-4" />
  <metadata
     id="metadata7">
    <rdf:RDF>
      <cc:Work
         rdf:about="">
        <dc:format>image/svg+xml</dc:format>
        <dc:type
           rdf:resource="http://purl.org/dc/dcmitype/StillImage" />
      </cc:Work>
    </rdf:RDF>
  </metadata>
  <g
     inkscape:label="Layer 1"
     inkscape:groupmode="layer"
     id="layer1">
    <g
       style="overflow:visible"
       id="g1364"
       transform="translate(-1044.714,-564.7806)">
      <g
         id="g3">
        <path
           d="M 1044.714,614.7806 C 1044.714,587.16634 1067.0993,564.7806 1094.714,564.7806 L 1744.714,564.7806 C 1772.3283,564.7806 1794.714,587.16634 1794.714,614.7806 L 1794.714,1114.7806 C 1794.714,1142.3958 1772.3283,1164.7806 1744.714,1164.7806 L 1094.714,1164.7806 C 1067.0993,1164.7806 1044.714,1142.3958 1044.714,1114.7806 L 1044.714,614.7806 L 1044.714,614.7806 z "
           id="path7" />
        <path
           id="path9"
           d="" />
      </g>
    </g>
    <path
       style="fill:#ffffff;fill-opacity:1;stroke:none;stroke-width:1;stroke-miterlimit:4;stroke-opacity:1"
       d="M 285.85121,12.5 L 464.14875,12.5 C 615.58531,12.5 737.5,140.725 737.5,300 C 737.5,459.27499 615.58531,587.5 464.14875,587.5 L 285.85121,587.5 C 134.41464,587.5 12.5,459.27499 12.5,300 C 12.5,140.725 134.41464,12.5 285.85121,12.5 z "
       id="path3057" />
    <path
       style="font-size:430px;font-style:normal;font-variant:normal;font-weight:normal;font-stretch:normal;text-align:center;line-height:100%;writing-mode:lr-tb;text-anchor:middle;font-family:Roadgeek 2005 Series B"
       d="M 194.87342,217.43999 C 194.87328,223.17354 194.44328,228.47687 193.58342,233.34999 C 192.72329,237.93686 191.14662,242.95352 188.85342,248.39999 C 186.55996,253.84684 183.40663,260.01017 179.39342,266.88999 C 175.37997,273.77016 170.07664,281.94015 163.48342,291.39999 C 154.88332,305.16013 146.57,319.20678 138.54342,333.53999 C 130.80335,347.58675 124.64002,360.20007 120.05342,371.37999 C 117.47336,377.11339 115.61003,382.70338 114.46342,388.14999 C 113.3167,393.31004 112.4567,399.47337 111.88342,406.63999 L 189.71342,406.63999 L 189.71342,444.04999 L 70.603422,444.04999 C 70.890074,426.27667 72.036739,410.22335 74.043422,395.88999 C 76.050069,381.27005 79.346732,367.36673 83.933422,354.17999 C 88.806723,340.70676 95.113383,327.37677 102.85342,314.18999 C 110.59337,301.00346 120.34002,286.67015 132.09342,271.18999 C 141.84,258.00351 148.43333,247.54018 151.87342,239.79999 C 155.59999,232.0602 157.46332,224.60687 157.46342,217.43999 C 157.46332,207.98022 155.31332,200.67023 151.01342,195.50999 C 146.71333,190.06358 140.83667,187.34024 133.38342,187.33999 C 126.21669,187.34024 120.34002,189.63358 115.75342,194.21999 C 111.1667,198.52023 108.5867,204.25356 108.01342,211.41999 L 70.603422,211.41999 C 71.750073,193.6469 77.9134,179.17025 89.093422,167.98999 C 100.56004,156.52361 115.32336,150.79028 133.38342,150.78999 C 142.27,150.79028 150.43999,152.51028 157.89342,155.94999 C 165.63331,159.10361 172.22664,163.69027 177.67342,169.70999 C 183.11996,175.44359 187.27662,182.46692 190.14342,190.77999 C 193.29662,198.8069 194.87328,207.69356 194.87342,217.43999 M 367.07498,299.56999 C 366.78816,307.59679 366.50149,316.91345 366.21498,327.51999 C 366.21483,337.84009 365.64149,348.59008 364.49498,359.76999 C 363.63483,370.66339 361.91483,381.41338 359.33498,392.01999 C 357.0415,402.6267 353.45817,412.08669 348.58498,420.39999 C 343.71152,428.71334 337.40486,435.45 329.66498,440.60999 C 321.92487,445.48332 312.17821,447.91998 300.42498,447.91999 C 288.38491,447.91998 278.35158,445.48332 270.32498,440.60999 C 262.29826,435.45 255.70494,428.71334 250.54498,420.39999 C 245.67161,412.08669 241.94495,402.6267 239.36498,392.01999 C 236.78496,381.41338 234.92163,370.66339 233.77498,359.76999 C 232.91496,348.59008 232.48496,337.84009 232.48498,327.51999 C 232.48496,316.91345 232.48496,307.59679 232.48498,299.56999 C 232.48496,290.97014 232.62829,281.36682 232.91498,270.75999 C 233.20163,260.15351 233.91829,249.40352 235.06498,238.50999 C 236.49829,227.3302 238.50495,216.58022 241.08498,206.25999 C 243.95162,195.65357 247.82161,186.33691 252.69498,178.30999 C 257.85494,169.99693 264.30493,163.4036 272.04498,158.52999 C 279.78491,153.37028 289.2449,150.79028 300.42498,150.78999 C 312.17821,150.79028 321.92487,153.37028 329.66498,158.52999 C 337.69152,163.4036 344.14152,169.99693 349.01498,178.30999 C 353.88817,186.33691 357.61484,195.65357 360.19498,206.25999 C 362.77483,216.58022 364.49483,227.3302 365.35498,238.50999 C 366.50149,249.40352 367.07483,260.29684 367.07498,271.18999 C 367.07483,281.79682 367.07483,291.25681 367.07498,299.56999 M 328.37498,299.56999 C 328.37487,296.13014 328.37487,291.11347 328.37498,284.51999 C 328.66153,277.64015 328.66153,270.18683 328.37498,262.15999 C 328.0882,253.84684 327.51487,245.39019 326.65498,236.78999 C 325.79487,228.1902 324.36154,220.30688 322.35498,213.13999 C 320.34821,205.97356 317.48154,200.0969 313.75498,195.50999 C 310.31488,190.92357 305.87155,188.48691 300.42498,188.19999 C 294.97823,188.48691 290.39157,190.92357 286.66498,195.50999 C 282.93824,200.0969 279.92825,205.97356 277.63498,213.13999 C 275.34158,220.30688 273.62159,228.1902 272.47498,236.78999 C 271.32826,245.39019 270.61159,253.84684 270.32498,262.15999 C 270.03826,270.18683 269.89492,277.64015 269.89498,284.51999 C 269.89492,291.11347 269.89492,296.13014 269.89498,299.56999 C 269.89492,303.01013 269.89492,308.17012 269.89498,315.04999 C 269.89492,321.64344 270.03826,329.09677 270.32498,337.40999 C 270.61159,345.43675 271.32826,353.89341 272.47498,362.77999 C 273.62159,371.38006 275.34158,379.26339 277.63498,386.42999 C 279.92825,393.31004 282.79491,399.04337 286.23498,403.62999 C 289.96157,408.21669 294.69157,410.51002 300.42498,410.50999 C 305.87155,410.51002 310.31488,408.36002 313.75498,404.05999 C 317.19488,399.47337 319.91821,393.5967 321.92498,386.42999 C 323.93154,379.26339 325.36487,371.38006 326.22498,362.77999 C 327.37153,354.18008 328.0882,345.86675 328.37498,337.83999 C 328.66153,329.52677 328.66153,321.93011 328.37498,315.04999 C 328.37487,308.17012 328.37487,303.01013 328.37498,299.56999 M 526.6117,217.43999 C 526.61156,223.17354 526.18156,228.47687 525.3217,233.34999 C 524.46157,237.93686 522.8849,242.95352 520.5917,248.39999 C 518.29824,253.84684 515.14491,260.01017 511.1317,266.88999 C 507.11825,273.77016 501.81492,281.94015 495.2217,291.39999 C 486.6216,305.16013 478.30828,319.20678 470.2817,333.53999 C 462.54163,347.58675 456.3783,360.20007 451.7917,371.37999 C 449.21164,377.11339 447.34831,382.70338 446.2017,388.14999 C 445.05498,393.31004 444.19498,399.47337 443.6217,406.63999 L 521.4517,406.63999 L 521.4517,444.04999 L 402.3417,444.04999 C 402.62836,426.27667 403.77502,410.22335 405.7817,395.88999 C 407.78835,381.27005 411.08501,367.36673 415.6717,354.17999 C 420.545,340.70676 426.85166,327.37677 434.5917,314.18999 C 442.33165,301.00346 452.07831,286.67015 463.8317,271.18999 C 473.57828,258.00351 480.17161,247.54018 483.6117,239.79999 C 487.33827,232.0602 489.2016,224.60687 489.2017,217.43999 C 489.2016,207.98022 487.0516,200.67023 482.7517,195.50999 C 478.45161,190.06358 472.57495,187.34024 465.1217,187.33999 C 457.95497,187.34024 452.07831,189.63358 447.4917,194.21999 C 442.90498,198.52023 440.32498,204.25356 439.7517,211.41999 L 402.3417,211.41999 C 403.48835,193.6469 409.65168,179.17025 420.8317,167.98999 C 432.29833,156.52361 447.06164,150.79028 465.1217,150.78999 C 474.00828,150.79028 482.17828,152.51028 489.6317,155.94999 C 497.37159,159.10361 503.96492,163.69027 509.4117,169.70999 C 514.85824,175.44359 519.01491,182.46692 521.8817,190.77999 C 525.0349,198.8069 526.61156,207.69356 526.6117,217.43999 M 679.46327,217.43999 C 679.46313,223.17354 679.03313,228.47687 678.17327,233.34999 C 677.31313,237.93686 675.73646,242.95352 673.44327,248.39999 C 671.1498,253.84684 667.99647,260.01017 663.98327,266.88999 C 659.96981,273.77016 654.66649,281.94015 648.07327,291.39999 C 639.47317,305.16013 631.15984,319.20678 623.13327,333.53999 C 615.39319,347.58675 609.22986,360.20007 604.64327,371.37999 C 602.0632,377.11339 600.19987,382.70338 599.05327,388.14999 C 597.90654,393.31004 597.04654,399.47337 596.47327,406.63999 L 674.30327,406.63999 L 674.30327,444.04999 L 555.19327,444.04999 C 555.47992,426.27667 556.62658,410.22335 558.63327,395.88999 C 560.63991,381.27005 563.93658,367.36673 568.52327,354.17999 C 573.39657,340.70676 579.70323,327.37677 587.44327,314.18999 C 595.18321,301.00346 604.92987,286.67015 616.68327,271.18999 C 626.42985,258.00351 633.02317,247.54018 636.46327,239.79999 C 640.18983,232.0602 642.05316,224.60687 642.05327,217.43999 C 642.05316,207.98022 639.90317,200.67023 635.60327,195.50999 C 631.30318,190.06358 625.42651,187.34024 617.97327,187.33999 C 610.80653,187.34024 604.92987,189.63358 600.34327,194.21999 C 595.75654,198.52023 593.17655,204.25356 592.60327,211.41999 L 555.19327,211.41999 C 556.33992,193.6469 562.50324,179.17025 573.68327,167.98999 C 585.14989,156.52361 599.91321,150.79028 617.97327,150.78999 C 626.85985,150.79028 635.02984,152.51028 642.48327,155.94999 C 650.22316,159.10361 656.81648,163.69027 662.26327,169.70999 C 667.70981,175.44359 671.86647,182.46692 674.73327,190.77999 C 677.88646,198.8069 679.46313,207.69356 679.46327,217.43999"
       id="text1320" />
    <path
       style="fill:none;fill-opacity:1;stroke:#000000;stroke-width:1.02277303;stroke-miterlimit:4;stroke-opacity:1"
       d="M 285.977,13.0114 L 464.02301,13.0114 C 615.24596,13.0114 736.98861,141.00832 736.98861,300.00001 C 736.98861,458.99169 615.24596,586.9886 464.02301,586.9886 L 285.977,586.9886 C 134.75405,586.9886 13.01139,458.99169 13.01139,300.00001 C 13.01139,141.00832 134.75405,13.0114 285.977,13.0114 z "
       id="rect2183" />
  </g>
</svg>
